<svg xmlns="http://www.w3.org/2000/svg" width="27.744" height="27.746" viewBox="0 0 27.744 27.746">
  <g id="_003---Call" data-name="003---Call" transform="translate(0.503 0.523)">
    <path id="Shape" d="M12.063,15.688A10.784,10.784,0,0,1,8.807,9.565.916.916,0,0,1,9.07,8.8l2.064-2.063a.921.921,0,0,0,.13-1.14L7.977.493A.921.921,0,0,0,6.784.157L1.508,2.641A.916.916,0,0,0,1,3.557c.276,2.626,1.421,9.081,7.765,15.426s12.8,7.489,15.426,7.765a.916.916,0,0,0,.915-.507l2.485-5.275a.921.921,0,0,0-.334-1.192l-5.1-3.285a.921.921,0,0,0-1.14.129l-2.063,2.064a.916.916,0,0,1-.767.263A10.784,10.784,0,0,1,12.063,15.688Z" transform="translate(-0.997 -0.032)" fill="#f9a73e" stroke="#f9a73e" stroke-width="1"/>
    <path id="Shape-2" data-name="Shape" d="M36.753,19.675a.921.921,0,0,1-.921-.921,6.918,6.918,0,0,0-6.91-6.91.921.921,0,1,1,0-1.843,8.763,8.763,0,0,1,8.753,8.753A.921.921,0,0,1,36.753,19.675Z" transform="translate(-15.56 -5.393)" fill="#f9a73e" stroke="#f9a73e" stroke-width="1"/>
    <path id="Shape-3" data-name="Shape" d="M41.36,14.282a.921.921,0,0,1-.921-.921A11.53,11.53,0,0,0,28.921,1.843a.921.921,0,1,1,0-1.843,13.375,13.375,0,0,1,13.36,13.36.921.921,0,0,1-.921.921Z" transform="translate(-15.56)" fill="#f9a73e" stroke="#f9a73e" stroke-width="1"/>
  </g>
</svg>
