<svg xmlns="http://www.w3.org/2000/svg" width="39.654" height="29.387" viewBox="0 0 39.654 29.387">
  <g id="credit-card" transform="translate(0 -55.2)">
    <g id="Group_45" data-name="Group 45" transform="translate(25.425 74.076)">
      <g id="Group_44" data-name="Group 44" transform="translate(0 0)">
        <path id="Path_102" data-name="Path 102" d="M282.4,258.754a3.353,3.353,0,0,0-3.766,0,3.315,3.315,0,0,0-1.878-.577,3.362,3.362,0,0,0,0,6.724,3.314,3.314,0,0,0,1.878-.577,3.362,3.362,0,0,0,3.766-5.57Zm-.753,3.757a1.49,1.49,0,0,1-2.1.186,1.29,1.29,0,0,1-.2-.2.9.9,0,0,0-.716-.326.923.923,0,0,0-.716.335,1.455,1.455,0,0,1-1.153.539,1.5,1.5,0,0,1-1.507-1.5,1.494,1.494,0,0,1,2.65-.958.932.932,0,0,0,1.311.139.985.985,0,0,0,.14-.139,1.492,1.492,0,1,1,2.288,1.916Z" transform="translate(-273.4 -258.175)" fill="#f9a73e"/>
      </g>
    </g>
    <g id="Group_47" data-name="Group 47" transform="translate(0 55.2)">
      <g id="Group_46" data-name="Group 46" transform="translate(0 0)">
        <path id="Path_103" data-name="Path 103" d="M39.616,66.769c0-.084.037-.177.037-.27s-.037-.177-.037-.26v-1.99a3.957,3.957,0,0,0-3.98-3.934H34.5V59.19a3.957,3.957,0,0,0-3.924-3.99H3.943A3.973,3.973,0,0,0,0,59.19V75.538a3.925,3.925,0,0,0,3.915,3.934H5.021V80.6a4,4,0,0,0,3.971,3.99H35.636a4.011,4.011,0,0,0,3.98-3.99V71.13c0-.084.037-.177.037-.26s-.037-.177-.037-.26ZM5.021,64.249V77.612H3.943A2.064,2.064,0,0,1,1.86,75.575V59.19a2.114,2.114,0,0,1,2.083-2.13H30.586a2.1,2.1,0,0,1,2.065,2.13v1.125H8.992A3.949,3.949,0,0,0,5.021,64.249ZM37.756,80.6a2.139,2.139,0,0,1-2.12,2.13H8.992A2.125,2.125,0,0,1,6.881,80.6V71.753H37.756Zm0-10.7H6.881V67.476H37.756Zm.009-4.278H6.881V64.249a2.09,2.09,0,0,1,2.111-2.074H35.645a2.092,2.092,0,0,1,2.12,2.074Z" transform="translate(0 -55.2)" fill="#f9a73e"/>
      </g>
    </g>
  </g>
</svg>
