<svg xmlns="http://www.w3.org/2000/svg" width="116.871" height="197.26" viewBox="0 0 116.871 197.26">
  <g id="Group_598" data-name="Group 598" transform="translate(1148.826 368.636)">
    <g id="Group_24" data-name="Group 24" transform="translate(-1085.156 -266.567)">
      <path id="Path_84" data-name="Path 84" d="M-1052.236-247.392l-1.262-5.734-4.574,4.867-1.26-.255,6.293-6.455,1.988,7.864Z" transform="translate(1059.333 254.968)" fill="#185136"/>
    </g>
    <path id="Path_85" data-name="Path 85" d="M-1127.987-189.881s7.562-36.7,28.435-42.754c17.858-5.176,8.269,1.613,8.269,1.613S-1116.9-212.872-1127.987-189.881Z" transform="translate(-6.013 -17.481)" fill="#185136"/>
    <path id="Path_86" data-name="Path 86" d="M-1129.292-187.281l.58-2.815c.076-.369,7.847-36.984,28.685-43.025,9.2-2.666,10.823-2.086,11.209-1.284.555,1.15-1.877,2.992-2.636,3.53-.256.181-25.666,18.363-36.589,41Zm38.7-47.1c-1.243,0-3.835.375-9.236,1.94-16.978,4.921-25.154,30.76-27.473,39.554,11.619-21.533,35.19-38.4,35.437-38.572,1.295-.918,2.6-2.242,2.407-2.641C-1089.5-234.179-1089.69-234.377-1090.593-234.377Z" transform="translate(-5.636 -17.338)" fill="#185136"/>
    <path id="Path_87" data-name="Path 87" d="M-1146.98-208.6s20.425-41.136,64.737-36.7c44.368,4.437,44.368,72.8,36.1,86.718,0,0,.191-11.57-4.608-29.779-.108-.411-7.091,17.895-7.946,15.964-.8-1.815,3.128-15.785-.13-26.017a67.767,67.767,0,0,0-22.609-32.77s-2.823,3.832-6.05,3.227-8.067-4.235-8.067-4.235S-1125.2-230.784-1146.98-208.6Z" transform="translate(-0.533 -14.291)" fill="#185136"/>
    <path id="Path_88" data-name="Path 88" d="M-1022.153-190.652a17.3,17.3,0,0,0-1.687-5.494c-.065.016.137-.155,0,0a21.994,21.994,0,0,1,.98,5.57c1.089,10.209-5.075,20.921-7.78,25.062,6.911-26.151-9.574-46.4-16.015-53.087-1.019-.726-2.057-1.433-3.028-2.211v.279l.124.106c.279.238,27.734,24.138,17.638,56.8l-.6,1.932,1.22-1.611C-1031.192-163.448-1020.742-177.421-1022.153-190.652Z" transform="translate(-28.607 -21.454)" fill="#185136"/>
    <path id="Path_89" data-name="Path 89" d="M-1050.765-244.009s.348,6.863-.658,9.2a13.36,13.36,0,0,1-3.312,4.343l2.792,1.84s2.687-3.479,2.787-6.73c.083-2.691-.538-8.4-.538-8.4Z" transform="translate(-27.149 -14.761)" fill="#ffab38"/>
    <path id="Path_90" data-name="Path 90" d="M-1063.687-245.377s-8.129,4.765-10.431,9.622a17.824,17.824,0,0,0-1.076,3.764l-3.378.1s.846-4.182,1.63-5.411c3.109-4.874,12.057-8.324,12.057-8.324Z" transform="translate(-20.272 -14.294)" fill="#ffab38"/>
    <path id="Path_91" data-name="Path 91" d="M-1050.493-222.261c-7.166-14.2-18.017-22.118-32.248-23.541-23.021-2.3-39.494,7.855-49.261,16.782a77.712,77.712,0,0,0-15.83,20.118l-.995,2,1.567-1.6c20.715-21.1,48.943-23.343,51.065-23.482.747.549,5.066,3.651,8.109,4.222,2.908.548,5.42-2.164,6.176-3.078q3.55,2.795,6.634,5.719a2.663,2.663,0,0,1,.262-.724c-2.089-1.961-4.073-3.838-6.482-5.72l-.255-.053-.5.07c-.027.036-2.723,3.645-5.7,3.088-3.108-.583-7.872-4.134-7.919-4.17l-.1-.077-.128.006c-.289.014-28.45,1.584-49.894,21.962a79.839,79.839,0,0,1,14.476-17.761c9.659-8.829,25.95-18.876,48.71-16.6,13.973,1.4,24.634,9.188,31.684,23.154,10.695,21.185,9.544,51.173,4.87,61.617a84.761,84.761,0,0,0-3.2-23.457c-.551-1.986-1.215-4.106-2.012-6.325a1.765,1.765,0,0,1-.55.767c5.94,16.962,5.009,30.345,4.99,30.582l-.123,1.529.783-1.319C-1041.165-167.307-1038.719-198.938-1050.493-222.261Z" transform="translate(0 -14.148)" fill="#184731"/>
    <rect id="Rectangle_41" data-name="Rectangle 41" width="0.773" height="100.227" transform="translate(-1079.479 -366.049)" fill="#185136"/>
    <rect id="Rectangle_42" data-name="Rectangle 42" width="5.311" height="5.311" rx="2.655" transform="translate(-1081.747 -368.636)" fill="#185136"/>
    <g id="Group_25" data-name="Group 25" transform="translate(-1051.227 -224.806)">
      <circle id="Ellipse_4" data-name="Ellipse 4" cx="8.533" cy="8.533" r="8.533" transform="translate(0.359 0.359)" fill="#165f3f"/>
      <path id="Path_92" data-name="Path 92" d="M-1008.5-180.591a8.884,8.884,0,0,1-1.792-2.075,8.831,8.831,0,0,1-1.126-6.709,8.83,8.83,0,0,1,3.949-5.54,8.827,8.827,0,0,1,6.709-1.125,8.829,8.829,0,0,1,5.54,3.948,8.832,8.832,0,0,1,1.125,6.709h0a8.831,8.831,0,0,1-3.948,5.54,8.83,8.83,0,0,1-6.709,1.126A8.842,8.842,0,0,1-1008.5-180.591Zm11.027-13.035a8.136,8.136,0,0,0-3.448-1.722,8.127,8.127,0,0,0-6.172,1.035,8.125,8.125,0,0,0-3.632,5.1,8.128,8.128,0,0,0,1.035,6.173,8.127,8.127,0,0,0,5.1,3.632,8.123,8.123,0,0,0,6.172-1.036,8.121,8.121,0,0,0,3.632-5.1h0a8.121,8.121,0,0,0-1.035-6.172A8.17,8.17,0,0,0-997.468-193.625Z" transform="translate(1011.644 196.271)" fill="#185136"/>
    </g>
    <path id="Path_93" data-name="Path 93" d="M-1005.8-174.574a10.622,10.622,0,0,0,12.735-7.965l-20.7-4.77A10.622,10.622,0,0,0-1005.8-174.574Z" transform="translate(-38.893 -31.121)" fill="#ffab38"/>
    <rect id="Rectangle_43" data-name="Rectangle 43" width="2.488" height="8.744" transform="translate(-1041.751 -215.889) rotate(-167.024)" fill="#ffab38"/>
  </g>
</svg>
