<svg xmlns="http://www.w3.org/2000/svg" width="40.732" height="39.416" viewBox="0 0 40.732 39.416">
  <g id="money" transform="translate(0.25 -7.707)">
    <g id="Group_29" data-name="Group 29" transform="translate(0 20.756)">
      <g id="Group_28" data-name="Group 28" transform="translate(0 0)">
        <path id="Path_94" data-name="Path 94" d="M34.184,160.017H.576a.575.575,0,0,0-.576.575H0v16.131a.575.575,0,0,0,.575.576H23.429a.576.576,0,0,0,0-1.152H1.152V161.169H33.607v1.44a.575.575,0,0,0,.575.576h0a.575.575,0,0,0,.576-.575h0v-2.016A.575.575,0,0,0,34.184,160.017Z" transform="translate(0 -160.017)" fill="#f9a73e" stroke="#f9a73e" stroke-width="0.5"/>
      </g>
    </g>
    <g id="Group_31" data-name="Group 31" transform="translate(1.344 12.018)">
      <g id="Group_30" data-name="Group 30">
        <path id="Path_95" data-name="Path 95" d="M44.927,62.082,18.042,56.033a.576.576,0,0,0-.689.437l-1.344,6.049a.576.576,0,1,0,1.125.25l1.219-5.485,26.322,5.922a.543.543,0,0,0,.127.014.576.576,0,0,0,.126-1.138Z" transform="translate(-15.995 -56.019)" fill="#f9a73e" stroke="#f9a73e" stroke-width="0.5"/>
      </g>
    </g>
    <g id="Group_33" data-name="Group 33" transform="translate(8.727 7.982)">
      <g id="Group_32" data-name="Group 32" transform="translate(0 0)">
        <path id="Path_96" data-name="Path 96" d="M122.159,14.748,106.028,8.027a.578.578,0,0,0-.739.275l-1.344,2.689a.578.578,0,1,0,1.017.55l.017-.034h0l1.1-2.207,15.633,6.514a.578.578,0,1,0,.445-1.066Z" transform="translate(-103.875 -7.982)" fill="#f9a73e" stroke="#f9a73e" stroke-width="0.5"/>
      </g>
    </g>
    <g id="Group_35" data-name="Group 35" transform="translate(21.508 23.444)">
      <g id="Group_34" data-name="Group 34">
        <path id="Path_97" data-name="Path 97" d="M261.911,192.017h-5.335a.576.576,0,0,0,0,1.152h5.335a.576.576,0,0,0,0-1.152Z" transform="translate(-256 -192.017)" fill="#f9a73e" stroke="#f9a73e" stroke-width="0.5"/>
      </g>
    </g>
    <g id="Group_37" data-name="Group 37" transform="translate(10.792 23.482)">
      <g id="Group_36" data-name="Group 36">
        <path id="Path_98" data-name="Path 98" d="M134.371,192.473a5.915,5.915,0,1,0,5.915,5.915A5.915,5.915,0,0,0,134.371,192.473Zm0,10.754a4.839,4.839,0,1,1,4.839-4.839A4.839,4.839,0,0,1,134.371,203.227Z" transform="translate(-128.456 -192.473)" fill="#f9a73e" stroke="#f9a73e" stroke-width="0.5"/>
      </g>
    </g>
    <g id="Group_39" data-name="Group 39" transform="translate(25.445 25.364)">
      <g id="Group_38" data-name="Group 38">
        <path id="Path_99" data-name="Path 99" d="M310.249,214.873c-3.562,0-7.393.842-7.393,2.689v16.131c0,1.847,3.831,2.689,7.393,2.689s7.393-.842,7.393-2.689V217.562C317.643,215.715,313.812,214.873,310.249,214.873Zm6.049,18.81c-.1.373-2.117,1.354-6.049,1.354s-5.948-.981-6.049-1.344v-1.057a17.839,17.839,0,0,0,12.1,0Zm0-2.689c-.1.373-2.117,1.354-6.049,1.354S304.3,231.367,304.2,231v-1.057a17.839,17.839,0,0,0,12.1,0Zm0-2.689c-.1.373-2.117,1.354-6.049,1.354s-5.948-.981-6.049-1.344v-1.057a17.839,17.839,0,0,0,12.1,0Zm0-2.689c-.1.373-2.117,1.354-6.049,1.354s-5.948-.981-6.049-1.344v-1.057a17.84,17.84,0,0,0,12.1,0Zm0-2.689c-.1.373-2.117,1.354-6.049,1.354s-5.948-.981-6.049-1.344v-1.057a17.839,17.839,0,0,0,12.1,0Zm0-2.689c-.1.373-2.117,1.354-6.049,1.354s-5.948-.981-6.049-1.344v-1.057a17.839,17.839,0,0,0,12.1,0Zm-6.049-1.334c-3.926,0-5.941-.979-6.049-1.332v0c.108-.374,2.123-1.352,6.049-1.352,3.9,0,5.915.964,6.049,1.344C316.164,217.942,314.148,218.906,310.249,218.906Z" transform="translate(-302.856 -214.873)" fill="#f9a73e" stroke="#f9a73e" stroke-width="0.5"/>
      </g>
    </g>
    <g id="Group_41" data-name="Group 41" transform="translate(2.688 23.444)">
      <g id="Group_40" data-name="Group 40">
        <path id="Path_100" data-name="Path 100" d="M40.634,202.77H35.554l-2.409-2.635v-4.369l2.66-2.6h4.829a.576.576,0,0,0,0-1.152H35.571a.577.577,0,0,0-.4.163l-3,2.928a.722.722,0,0,0-.173.47v4.78a.576.576,0,0,0,.151.388l2.731,2.987a.576.576,0,0,0,.425.188h5.335a.576.576,0,1,0,0-1.152Z" transform="translate(-31.992 -192.017)" fill="#f9a73e" stroke="#f9a73e" stroke-width="0.5"/>
      </g>
    </g>
    <g id="Group_43" data-name="Group 43" transform="translate(14.691 26.373)">
      <g id="Group_42" data-name="Group 42">
        <path id="Path_101" data-name="Path 101" d="M177.208,229.225h-.672c-.209,0-.336-.117-.336-.168s.127-.168.336-.168h1.68a.672.672,0,1,0,0-1.344h-.672a.672.672,0,1,0-1.344,0v.03a1.565,1.565,0,0,0-1.344,1.479,1.605,1.605,0,0,0,1.68,1.516h.672c.209,0,.336.117.336.168s-.127.168-.336.168h-1.68a.672.672,0,1,0,0,1.344h.672a.672.672,0,1,0,1.344,0v-.03a1.565,1.565,0,0,0,1.344-1.479A1.605,1.605,0,0,0,177.208,229.225Z" transform="translate(-174.856 -226.873)" fill="#f9a73e" stroke="#f9a73e" stroke-width="0.5"/>
      </g>
    </g>
  </g>
</svg>
