<svg id="viber-footer" xmlns="http://www.w3.org/2000/svg" width="25.657" height="28.014" viewBox="0 0 25.657 28.014">
  <path id="Path_84" data-name="Path 84" d="M26.774,16.2c.835-7.029-.4-11.466-2.631-13.473h0C20.546-.7,8.391-1.2,4.086,2.884c-1.934,2-2.615,4.935-2.689,8.569S1.233,21.9,7.578,23.745h.006l-.006,2.821s-.043,1.143.687,1.373c.835.271,1.213-.26,3.81-3.362a23.766,23.766,0,0,0,8.057-.612c.877-.294,5.839-.95,6.642-7.76ZM12.5,22.592s-2.749,3.427-3.6,4.317c-.28.289-.587.262-.582-.311,0-.377.021-4.684.021-4.684-5.38-1.542-5.063-7.34-5-10.373s.613-5.52,2.251-7.193C9.363.806,20.018,1.6,22.733,4.149c3.319,2.942,2.138,11.255,2.145,11.539-.682,5.684-4.7,6.044-5.443,6.291a21.926,21.926,0,0,1-6.932.613Z" transform="translate(-1.38 0.013)" fill="#f9a73e"/>
  <path id="Path_85" data-name="Path 85" d="M12.27,4.3a.353.353,0,0,0,0,.706c3.483.027,6.352,2.455,6.384,6.909a.341.341,0,1,0,.682-.006h0c-.037-4.8-3.17-7.582-7.065-7.608Z" transform="translate(0.374 0.73)" fill="#f9a73e"/>
  <path id="Path_86" data-name="Path 86" d="M16.767,10.911a.341.341,0,1,0,.682.016,4.723,4.723,0,0,0-4.64-5.056.354.354,0,0,0-.048.706,4.026,4.026,0,0,1,4.006,4.334Z" transform="translate(0.46 0.991)" fill="#f9a73e"/>
  <path id="Path_87" data-name="Path 87" d="M17.065,14.068a1.077,1.077,0,0,0-1.405.2l-.507.657a.907.907,0,0,1-.739.289,6.769,6.769,0,0,1-4.455-4.608.98.98,0,0,1,.279-.765l.634-.525a1.168,1.168,0,0,0,.195-1.454,15.156,15.156,0,0,0-1.738-2.51A.939.939,0,0,0,8.067,5.14h-.01c-1.009.59-2.113,1.695-1.76,2.832.6,1.2,1.711,5.021,5.242,7.908a20.158,20.158,0,0,0,5.4,3.088l.01.016c1.1.366,2.167-.781,2.737-1.82v-.008a1,1,0,0,0-.2-1.29,13.749,13.749,0,0,0-2.421-1.8Z" transform="translate(-0.574 0.845)" fill="#f9a73e"/>
  <path id="Path_88" data-name="Path 88" d="M13.215,8.2c1.121.065,1.664.651,1.722,1.853a.342.342,0,1,0,.682-.033A2.341,2.341,0,0,0,13.252,7.5a.354.354,0,0,0-.037.706Z" transform="translate(0.534 1.262)" fill="#f9a73e"/>
</svg>
