<svg id="whatsup-footer" xmlns="http://www.w3.org/2000/svg" width="25.656" height="25.657" viewBox="0 0 25.656 25.657">
  <path id="Path_82" data-name="Path 82" d="M18.3,14.856l-.01.08c-2.351-1.172-2.6-1.328-2.9-.872-.211.315-.824,1.031-1.009,1.242s-.373.224-.691.08A8.676,8.676,0,0,1,11.124,13.8,9.7,9.7,0,0,1,9.35,11.586c-.313-.541.342-.618.939-1.747a.588.588,0,0,0-.027-.56c-.08-.16-.718-1.732-.986-2.358s-.521-.545-.718-.545A1.591,1.591,0,0,0,7.1,6.743C5.37,8.64,5.8,10.6,7.281,12.676c2.9,3.8,4.447,4.5,7.274,5.467a4.423,4.423,0,0,0,2.01.129,3.29,3.29,0,0,0,2.155-1.524,2.646,2.646,0,0,0,.192-1.523c-.079-.144-.289-.224-.609-.369Z" transform="translate(0.413 0.439)" fill="#f9a73e"/>
  <path id="Path_83" data-name="Path 83" d="M21.936,3.687C13.717-4.259.113,1.5.108,12.714a12.653,12.653,0,0,0,1.705,6.355L0,25.657l6.772-1.766A12.8,12.8,0,0,0,25.657,12.72,12.608,12.608,0,0,0,21.92,3.729Zm1.584,9A10.643,10.643,0,0,1,7.472,21.776l-.385-.229L3.079,22.59l1.074-3.9-.255-.4A10.6,10.6,0,0,1,20.411,5.213a10.464,10.464,0,0,1,3.11,7.472Z" transform="translate(0 0)" fill="#f9a73e"/>
</svg>
