<svg id="Page-1" xmlns="http://www.w3.org/2000/svg" width="23.097" height="23.095" viewBox="0 0 23.097 23.095">
  <g id="_003---Call" data-name="003---Call" transform="translate(0)">
    <path id="Shape" d="M10.561,13.568A9.321,9.321,0,0,1,7.747,8.276a.792.792,0,0,1,.227-.663L9.758,5.83a.8.8,0,0,0,.112-.986L7.03.434A.8.8,0,0,0,6,.144L1.439,2.291A.792.792,0,0,0,1,3.082,22.041,22.041,0,0,0,7.712,16.415a22.035,22.035,0,0,0,13.333,6.712.792.792,0,0,0,.791-.438l2.147-4.56A.8.8,0,0,0,23.7,17.1l-4.41-2.84a.8.8,0,0,0-.986.111l-1.783,1.784a.792.792,0,0,1-.663.227A9.321,9.321,0,0,1,10.561,13.568Z" transform="translate(-0.997 -0.036)" fill="#fff"/>
    <path id="Shape-2" data-name="Shape" d="M35.566,18.362a.8.8,0,0,1-.8-.8A5.98,5.98,0,0,0,28.8,11.593.8.8,0,1,1,28.8,10a7.574,7.574,0,0,1,7.566,7.566A.8.8,0,0,1,35.566,18.362Z" transform="translate(-17.247 -6.018)" fill="#fff"/>
    <path id="Shape-3" data-name="Shape" d="M39.548,12.344a.8.8,0,0,1-.8-.8A9.966,9.966,0,0,0,28.8,1.593.8.8,0,1,1,28.8,0,11.56,11.56,0,0,1,40.344,11.548a.8.8,0,0,1-.8.8Z" transform="translate(-17.247)" fill="#fff"/>
  </g>
</svg>
