<svg id="Group_23" data-name="Group 23" xmlns="http://www.w3.org/2000/svg" width="101.724" height="115.352" viewBox="0 0 101.724 115.352">
  <path id="Path_75" data-name="Path 75" d="M-282.615,236.9a.055.055,0,0,1,.1.04c-1.48,4.872-9.7,31.378-16.16,41.124-2.537,3.826-21.265,3.287-18.338.915C-295.618,261.649-285.191,242.387-282.615,236.9Z" transform="translate(373.458 -183.071)" fill="#165f3f"/>
  <path id="Path_76" data-name="Path 76" d="M-310.5,281.076c4.818,0,10.556-.848,11.928-2.917,6.462-9.744,14.626-36.032,16.2-41.2l.082-.27-.295-.169a.354.354,0,0,0-.452.182h0c-1.8,3.821-11.885,23.8-34.313,41.972-.432.349-.456.675-.4.884.092.346.462.846,2.608,1.2A29.831,29.831,0,0,0-310.5,281.076Zm26.663-41.439c-2.7,8.611-9.628,29.727-15.24,38.188-1.716,2.587-11.522,3.069-15.97,2.334-1.59-.262-2.083-.609-2.122-.757-.011-.042.045-.139.2-.261A131.957,131.957,0,0,0-283.838,239.637Z" transform="translate(373.611 -182.999)" fill="#185136"/>
  <ellipse id="Ellipse_3" data-name="Ellipse 3" cx="9.678" cy="9.678" rx="9.678" ry="9.678" transform="translate(1.899 42.055)" fill="#165f3f"/>
  <path id="Path_77" data-name="Path 77" d="M-218.824,220.074a12.047,12.047,0,0,1,8.052,15.015l-23.065-6.963A12.047,12.047,0,0,1-218.824,220.074Z" transform="translate(233.838 -179.729)" fill="#ffab38"/>
  <rect id="Rectangle_38" data-name="Rectangle 38" width="0.877" height="81.202" transform="translate(45.629 5.147)" fill="#185136"/>
  <rect id="Rectangle_39" data-name="Rectangle 39" width="6.023" height="6.023" rx="3.012" transform="translate(43.056)" fill="#185136"/>
  <path id="Path_78" data-name="Path 78" d="M-259.912,284.13v-4.574a2.612,2.612,0,0,0-2.609-2.608,2.611,2.611,0,0,0-2.608,2.608v3.088h-.807v-3.088a3.418,3.418,0,0,1,3.415-3.415,3.419,3.419,0,0,1,3.416,3.415v4.574Z" transform="translate(308.589 -190.653)" fill="#185136"/>
  <path id="Path_79" data-name="Path 79" d="M-321.429,250.278s-5.792.173-6.835,3.5c-3.948,12.59,7.864,42.4,37.231,46.735,26.462,3.9,54.007-50.119,54.007-50.119s-29.506,33.33-51.923,28.821c-20.244-4.072-32.481-28.936-32.481-28.936" transform="translate(337.399 -185.66)" fill="#165f3f"/>
  <g id="Group_22" data-name="Group 22" transform="translate(14.865 37.17)">
    <path id="Path_80" data-name="Path 80" d="M-255.048,258.465c7.707-13.744,25.134-42.2,25.134-42.2l-28.755,28.82" transform="translate(258.669 -216.263)" fill="#165f3f"/>
  </g>
  <rect id="Rectangle_40" data-name="Rectangle 40" width="2.822" height="9.471" transform="matrix(-0.957, -0.289, 0.289, -0.957, 10.511, 61.463)" fill="#ffab38"/>
  <path id="Path_81" data-name="Path 81" d="M-244.3,284.017s-7.379,7.03-8.18,9.927c-.851,3.082-.178,9.089-.178,9.089l-4.551-2.305s-.346-5.16.669-7.965c1.048-2.9,10.324-9.628,10.324-9.628Z" transform="translate(286.786 -192.004)" fill="#ffab38"/>
  <path id="Path_82" data-name="Path 82" d="M-281.261,286.538s5.435,7.912,6.236,10.81c.851,3.082.178,9.089.178,9.089l5.062-2.281s-.164-5.185-1.18-7.99c-1.048-2.9-7.627-9.628-7.627-9.628Z" transform="translate(331.635 -192.661)" fill="#ffab38"/>
  <path id="Path_83" data-name="Path 83" d="M-329.912,246.765c.78-2.487,3.889-3.342,5.812-3.595a5.161,5.161,0,0,0,2.861-1.341l27.245-27.4h0c-.17.249-13.857,23.591-22.66,38.111,5.49,7.47,14.613,17.081,26.406,19.454,21.989,4.421,51.343-28.394,51.637-28.726l1.576-1.78-1.08,2.118c-.266.524-26.045,50.483-51.548,50.483a18.936,18.936,0,0,1-2.772-.2A44.675,44.675,0,0,1-324,273.093C-329.651,264.087-332.026,253.506-329.912,246.765Zm6.422,26.007a44.072,44.072,0,0,0,31.142,20.519c23.009,3.4,47.215-38.087,52.6-47.9-6.464,6.774-31.267,31.1-50.615,27.2-11.871-2.387-21.05-11.965-26.622-19.491a.677.677,0,0,1-.076-.094l-3.359,4.29h0s21.1-35.291,25.109-41.208l-25.92,26.567a4.43,4.43,0,0,1-2.232,1.062h0c-1.521.165-5.1.807-5.863,3.23C-331.4,253.528-329.05,263.907-323.489,272.772Z" transform="translate(338.758 -178.74)" fill="#185136"/>
</svg>
