<svg xmlns="http://www.w3.org/2000/svg" xmlns:xlink="http://www.w3.org/1999/xlink" width="480" height="441" viewBox="0 0 480 441">
  <defs>
    <clipPath id="clip-path">
      <rect id="Rectangle_163" data-name="Rectangle 163" width="480" height="441" transform="translate(1413.552 1096.214)" fill="#f9a73e" stroke="#707070" stroke-width="1"/>
    </clipPath>
  </defs>
  <g id="Mask_Group_4" data-name="Mask Group 4" transform="translate(-1413.552 -1096.214)" clip-path="url(#clip-path)">
    <g id="Group_587" data-name="Group 587" transform="translate(1371.814 1218.463)" opacity="0.37">
      <path id="Path_2239" data-name="Path 2239" d="M278.513,133.439c36.577,11.762,71.394,36.6,109.241,33.99,24.58-1.7,49.249-15.03,73.016-7.433,16.145,5.159,28.969,19.2,43.217,29.551a107.644,107.644,0,0,0,122.534,3.216c15.531-10.192,34.458-24.631,49.122-12.783,10.115,8.171,11.743,24.716,12.423,39.166q7.3,155.274,14.609,310.545-265.539,3.933-531.074,7.86,1.943-146.44,3.884-292.882c.451-34-5.17-68.874,17.807-94.034C215.453,126.368,250.637,124.473,278.513,133.439Z" transform="translate(-142.53 -128.509)" fill="#f9a73e" opacity="0.22"/>
      <path id="Path_2240" data-name="Path 2240" d="M230.286,220.42c22.2-4.169,44.171,10.8,64.445,22.257s41.7,23.634,64.086,21.22c29.64-3.2,53.61-31.173,82.86-37.684,24.739-5.511,49.8,4.947,74.858,7.761,68.9,7.73,131.99-41.833,188.416-89.149q14.978,177.906,29.958,355.809l-573.363-5.183c7.839-59.928,18.507-120.349,23.371-180.707C187.882,277.978,190.337,227.925,230.286,220.42Z" transform="translate(-161.547 -89.117)" fill="#f9a73e" opacity="0.51"/>
      <path id="Path_2241" data-name="Path 2241" d="M406.2,315.3c56.493-6.764,67.248-67.669,121.555-87.25,25.49-9.188,52.6-9.325,78.941-14.108s53.679-15.542,70.26-40.18q1.119,120.724,2.235,241.442L170.2,430.132C170.894,400.509,368.36,319.835,406.2,315.3Z" transform="translate(-151.508 -19.244)" fill="#f9a73e"/>
    </g>
  </g>
</svg>
