<svg xmlns="http://www.w3.org/2000/svg" width="133.787" height="270.712" viewBox="0 0 133.787 270.712">
  <g id="Group_796" data-name="Group 796" transform="translate(-520.997 -2386.61)">
    <g id="Group_48" data-name="Group 48" transform="translate(501.223 2386.61)">
      <rect id="Rectangle_41" data-name="Rectangle 41" width="0.793" height="186.76" transform="translate(22.377 3.379) rotate(-16)" fill="#185136"/>
      <rect id="Rectangle_42" data-name="Rectangle 42" width="5.445" height="5.445" rx="2.722" transform="translate(19.774)" fill="#185136"/>
    </g>
    <g id="Group_795" data-name="Group 795" transform="translate(623.571 2973.401) rotate(2)">
      <path id="Path_12490" data-name="Path 12490" d="M-39.948-435.963c-4.535-1.417-14.882,7.8-22.961,7.087s-13.039-14.74-13.039-14.74,3.543,21.827,11.2,23.953c3.477.966,8.445.145,12.833-1.036-1.185,2.171-7.4,13.2-14.534,19.319-7.937,6.8-16.441,28.488-18,32.315s-9.354,48.331-9.354,48.331,4.921-12.132,9.309-23.233h0c-.469,7.949,7.982,25.074,7.982,25.074s.567-35.291,2.693-39.826,20.055-14.741,22.63-17.292c1.9-1.883,2.362-8.787,2.457-10.393s2.929-6.142,3.968-7.843,20.882-24.991,20.882-24.991,12.15,1.7,23.2-5.1c9.283-5.717,15.023-21.827,15.023-21.827C-14.578-416.262-35.413-434.545-39.948-435.963Zm-11.877,15.239a77.284,77.284,0,0,0,9.609-3.333Z" fill="#165f3f"/>
      <path id="Path_12491" data-name="Path 12491" d="M-64.947-402.063s5.44,8.478,8.747,10.368a24.67,24.67,0,0,0,7.987,2.434l1.883-3.373s-5.629,1.128-9.308-2.273-6.592-10.75-7.271-9.99A33.191,33.191,0,0,0-64.947-402.063Z" fill="#ffab38"/>
      <path id="Path_12492" data-name="Path 12492" d="M-66.127-401s-.679,11.739,2.9,18.916c3.3,6.617,7.587,8.7,7.587,8.7l-4.913,3.254s-4.877-8.239-6.415-11.732C-69.287-387.136-68.079-399-68.079-399Z" fill="#ffab38"/>
      <path id="Path_12493" data-name="Path 12493" d="M13.976-446.515c-24.837,25.69-43.212,15.678-51.06,11.4A18.266,18.266,0,0,0-39.8-436.44c-2.315-.725-5.761.968-9.749,2.928-4.3,2.11-9.326,4.868-13.467,4.506-7.664-.673-12.874-14.558-12.923-14.695h0c.147.9,3.182,22.333,11.053,24.52,5.584,1.55,20.7-3.209,21.594-4.109.04-.042,3.015-2.162,3.015-2.162l-2.141.937c-.147.065-14.807,6.425-22.2,4.37-5.145-1.429-8.423-12.554-9.909-18.99,2.182,4.289,6.169,10.283,11.574,10.757,4.423.389,9.431-2.069,13.845-4.237,3.638-1.788,7.072-3.475,9.01-2.871a18.664,18.664,0,0,1,2.535,1.253c7.187,3.915,26,14.169,50.527-9.845-1.949,4.609-6.952,15.024-13.915,19.312-10.757,6.624-22.746,5.051-22.866,5.034l-.272-.038-.177.209c-.812.952-19.881,23.34-20.928,25.054l-.193.315c-1.949,3.178-3.764,6.318-3.848,7.759-.3,5.172-1.211,8.83-2.354,9.963a62.526,62.526,0,0,1-6.681,4.825c-6.482,4.28-14.548,9.606-16.006,12.714-1.863,3.975-2.539,30.116-2.7,37.9-2.158-4.678-7.387-16.727-7.023-22.9.01-.164.022-.34.035-.526A3.144,3.144,0,0,1-85-342.7c.351,8.359,7.7,23.357,8.034,24.025l.915,1.855.033-2.068c.006-.352.243-35.352,2.3-39.74,1.338-2.854,9.958-8.2,16-12.186a51.814,51.814,0,0,0,6.7-4.934c2.144-2.215,2.6-7.4,2.785-10.63.082-1.39,2.712-5.68,3.7-7.3l.194-.316c.8-1.308,13.673-16.939,20.573-25.041,1.893.2,13.192,1.361,23.341-4.889,9.326-5.742,15-21.42,15.233-22.084l.775-2.177Z" fill="#185136"/>
      <path id="Path_12494" data-name="Path 12494" d="M-95.109-316.191l.81-4.63c.319-1.819,7.823-44.6,9.384-48.432l.266-.658c6.78-16.78,12.9-27.382,17.984-31.735,7.772-6.661,14.94-19.106,15.007-19.234l.388.033c-.068.129-6.939,13.06-14.857,19.847-3.407,2.921-9.225,10.75-17.594,31.463l-.268.661c-1.222,3-6.446,32.005-8.5,43.538,3.506-8.693,11.155-27.753,13.514-34.4,3.125-8.808,12.5-17.149,12.9-17.5l.662.75c-.1.084-9.578,8.522-12.616,17.083-3.086,8.7-15.193,38.555-15.315,38.856Z" fill="#185136"/>
      <circle id="Ellipse_10" data-name="Ellipse 10" cx="11.993" cy="11.993" r="11.993" transform="translate(-36.816 -455.5)" fill="#165f3f"/>
      <path id="Path_12495" data-name="Path 12495" d="M-26.21-458.182a14.929,14.929,0,0,0-13.458,16.268l29.726-2.81A14.93,14.93,0,0,0-26.21-458.182Z" fill="#ffab38"/>
      <rect id="Rectangle_178" data-name="Rectangle 178" width="3.497" height="11.737" transform="matrix(0.996, -0.094, 0.094, 0.996, -27.016, -443.11)" fill="#ffab38"/>
    </g>
  </g>
</svg>
